<svg id="Layer_1" data-name="Layer 1" xmlns="http://www.w3.org/2000/svg" viewBox="0 0 79 79"><defs><style>.cls-1{fill:#fff;}</style></defs><title>accessibility_icon_white</title><path class="cls-1" d="M55.6,73.2a2.8083,2.8083,0,0,0,2.6,1.7,2.66252,2.66252,0,0,0,1.2-.3,2.88382,2.88382,0,0,0,1.4-3.9s-5.5-12.6-6.5-17.2a62.73446,62.73446,0,0,1-.7-7.9,1.53926,1.53926,0,0,1,1-1.5l12.3-3.7a2.912,2.912,0,0,0-1.6-5.6s-11.4,3.7-15.5,3.7c-4,0-15.3-3.6-15.3-3.6a3.03176,3.03176,0,0,0-3.7,1.8,2.89185,2.89185,0,0,0,2,3.7l12.3,3.7a1.42108,1.42108,0,0,1,1,1.5,62.73446,62.73446,0,0,1-.7,7.9c-1,4.6-6.5,17.2-6.5,17.2a2.96849,2.96849,0,0,0,1.4,3.9,2.66265,2.66265,0,0,0,1.2.3,2.71168,2.71168,0,0,0,2.6-1.7l5.9-12Z" transform="translate(-10.5 -10.5)"/><circle class="cls-1" cx="39.5" cy="19.5" r="5.6"/><path class="cls-1" d="M89.5,50A39.5,39.5,0,1,0,50,89.5,39.51954,39.51954,0,0,0,89.5,50ZM17.1,50A32.9,32.9,0,1,1,50,82.9,32.92583,32.92583,0,0,1,17.1,50Z" transform="translate(-10.5 -10.5)"/></svg>