<svg width="30" height="30" xmlns="http://www.w3.org/2000/svg"><path d="M28.651 0c-.745 0-1.349.602-1.349 1.349v26.97a1.348 1.348 0 1 0 2.698 0V1.35C30 .602 29.398 0 28.651 0zM2.684.451C1.103.451 0 1.711 0 3.517v22.638c0 1.804 1.103 3.062 2.686 3.062.574 0 1.159-.17 1.744-.503l19.604-11.322c1.058-.612 1.664-1.543 1.664-2.557 0-1.013-.606-1.944-1.664-2.557L4.43.958C3.845.624 3.26.452 2.684.452zm.042 2.7c.06.01.18.039.356.142l19.604 11.32c.177.1.262.188.302.205a1.08 1.08 0 0 1-.302.236L3.081 26.375c-.16.093-.274.125-.338.14a1.17 1.17 0 0 1-.047-.36V3.517c0-.207.029-.325.029-.366z" fill="#FFF" fill-rule="evenodd"/></svg>