<svg width="251" height="110" xmlns="http://www.w3.org/2000/svg"><g fill="none" fill-rule="evenodd"><path d="M232.788 82.071l-.156.795-.266.707-.541.394h-.217v.226l.98-.078.49-.542.15-.927.011-1.228h-.198l-.253.653zm16.422-28l-.193.023-.114.217-.704.876-.573.846-.21.422-.397 1.24-.211.288-.15.383-.253.237-.33.112-.375.036-.09.139.174.32.422.58-.271.132-.307.084-.313.045-.325-.027v.283l.964-.063.836-.75.698-1.11 2.018-4.358-.296.045zm-20.358 54.334l-.495.325.206.409-.031.027.482.01h.523l-.156-.97-.53.199zm-.699-8.735l-.59-3.055-.56-.954-.698-.07-.818.262-.952.009-1.185-.478-1.5-.142-2.81-1.074-1.03-.007-.597.699.06.575.32.207.145.22-.416.63-.072.403.229.478.54.768-.486-.096-.494-.305-.3-.418.066-.427-.627-.395-.794-.237-.831-.048-.776.144-.633.38-.577.46-.639.375-.794.07v-.28l.843-.61.415-.41.175-.349-.163-.497-.283-.43-.06-.377.506-.34V94.1l-1.825-1.003-.402-.367-.2-.141-.252-.088-.386-.042-.18-.141.042-.22.085-.078.288-.211v-.226l-1.782-.496-.463-.28-.199-.51-.018-2.268-.404-2.156-.199-.394-.408.157-.824 1.032-.585.079-.541-.395-.97-1.134-.42-.235h-2.716l-.584-.238-1.1-.828-.664-.174-.252-.343-.132-.735-.272-.704-.656-.265-.235.115-.89.77-.35.175-.258-.248-.211-.372-.187-.193h-2.534l-1.908-.744-.325.087-.133-.114-.294-.07-.284-.192-.103-.478.814-.761.463.586.434.2 1.246-.025.162.065.519.335.311.078.296-.015c.339-.13.677-.259 1.018-.385l.27-.018.253.12.295.298.073.226.215.491.217.367.109-.175.181-.243.927-.753.318-.165.386.105.253.294.86 1.434.272.656.366.39.687-.077.56-.428.324-.367.145-.35-.006-.992.114-.38.277-.285.127.683-.036.846.048.725.38.294.409.125 1.101.514.512.123.229.13.138.325.108.373.139.307.295.21.15-.219.103-.367.162-.252.554-.149 1.233-.114.428-.244.614.479.494.806.193.976-.271 1.041.205.252.355.516.601.671.657.49.518-.026 2.611 2.318.374.529.325 1.46.41.141.469-.22.831-.743.427-.235.506-.088.728-.017.566-.22.385-.53.253-.734.138-.789-.017-1.046-.331-.236-1.199.296-.487-.209.385-.454.662-.436.343-.16-.192-.53-.566-.56-.86-.584-.139.42-.314-.089-.342-.349-.193-.349-.012-.343.048-.47.078-.385.073-.086-.361-.462-.512-.045-1.258.226-.615-.133-.703-.336-1.199-.789-1.95-1.703-1.728-2.072-.637-1.16-.428-.603-.927-.602-1.258-2.218-.27-.157-.32-.114-.283-.148-.12-.216.017-.421.067-.377.15-.262.27-.102 1.524 1.526.88 1.67.564.813.675.35.463.336 1.789 2.91.228.193.368.079.283.123.282.523.867.314 1.12.89.577.194 2.348-.525.139-.216-.15-.49-.271-.515-.235-.298-.253-.07-.957.07v-.226l.842-.316.15-.078-.06-.367-.15-.143-.217-.077-.795-.603-.137-.294.144-.403.283-.217.313-.027.325.093.295.15-.085-.307-.144-.321-.223-.271-.337-.112.385-.91.554.489.898 1.661.535.175.428-.187.355-.051.077.568 1.199 1.536.252.49h.187l.084-1.11.681-2.017.036-1.153-.235-.652-.331-.142h-.349l-.301-.244.012-.394.276-.394.398-.323.331-.174v-.234l-.85-.847-.408-.073-.175.79-.288.39-.633-.28-.998-.76-.62-.13-.464-.298.006-.33.795-.263 1.378-.14.517-.182.524-.44-1.216-.408-1.246-.133-1.084-.374-.71-1.107-.445.208h-.602l-1.812-.377-.476-.277-.373-.438-.439-.831-.259-.671-.054-.287-.037-.09-.162-1.072-.21-.27-.807-.831-.314-.175-1.319-.252-.023-.142.042-.49-.019-.13-.138-.045-.125.017-.121-.005-.313-.253-.698-.229-.127-.174-.265-.488-.145-.096-.252-.283-.704-1.265-.144-.376-.067-.725-.216-.33-.928-.359-.367-.238-.476-.392-.397-.499-.3-.827-.284-.193-.337-.175-.283-.226-.283-.38-.06-.216-.265-2.112-.12-.228-.56-.584-.12-.203-.35-.364-2.094-.536-.283-.27-.192-.295-.103-.367-.024-.488-.109-.29-.229-.011-.373.186-.993-.15-.517-.244-.211-.394.235-.374.56.034 1.318.34.446.235.33.541.29.615.27.444.301-.041 1.319.267.463.28.355.367.578.892.83 2.043.259.253 1.175.91.409 1.18 1.8.959.409 1.185 1.12 1.795.35.373.39.202.403-.052.368-.385-.03.55.144.359.24.217.272.151.348-.344.193.17.12.372.146.29.878.697.133.23.229.74 1.053 1.33.331.608.012.43.21.699.35.445.452-.051.33-1.363.29-.51.378.605.068.332.215.473.23.294.108.045.144-.193.325.256.307.374.12.193 1.643.628.83.148.489-.514-.39.018-.098-.256-.421-.557-.102-.367.138-.253.26-.142.168-.225-.157-.51.277.115.349.078.344-.017.234-.175-.036-.434-.933-.795-.235-.444.078-.152.193.02.2.053.13-.054.2-.506.115-.376.011-.34-.126-.578-.59-1.222-.205-.744.283-.33.47.253.927.986.53.064.306-.5.115-.873-.018-1.6-.21-.416-.507-.394-.601-.334-2.715-1.03-1.102-.776-1.439-.534-.307-.201.217-.055.217-.138.168-.06-.247-.271-.288-.235-.32-.186-.36-.094-1.055.226-.15-.096-.042-.505-.036-.139.367-.385.084-.505-.398-.482-1.005-.698-.691-.666-.12-.19.023-.789-.078-.27-.247-.103-.349.052-.608.201h-.361l-.223-.114-.205-.183-.24-.167-.338-.071-.294.229-.704.421-.711.19-.331-.437-.175-.47-.451-.27-.59-.124-.602-.027-1.186-.217-1.45-.541-1.144-.665-.41-.925.067-.22.096-.22-.024-.289-.217-.303-.27-.183-.284-.133-.24-.163-1.331-1.427-.132-.084-.277-.228-.168-.235.174-.109.535.037.272-.037.21-.111.271-.55v-.638l-.163-.594-.223-.412-.698-.41-.698.326-.789.56-1.438.46-.982.716-.547.166-1.932.253-1.24-.391-1.41-.139v-.256l.326-.078.993.078.32-.138-.079-.307-.343-.445-.217-.41-1.041-1.057-.337-.472.47-.253.366.243.579.786-.266-1.405.344-1.628.445-1.4.079-.71v-.28l.24-.106.554-.386-.15-.186-.115-.237-.145-.115.392-.382.33-.578.236-.644.09-.584.192-.563.416-.306.41-.007.192.35.048.634.145.28.301-.012.494-.246.378-.268.296-.367.024-.373-.47-.28-.21-.395.012-.454.3-.359.5-.104-.078.49.156.276.217-.008.205-.72.228-.048.296.024.294-.132.596-.415.482-.157.319-.331.114-.927.012-3.89-.036-.18-.156-.435-.108-.22-.543-.838.012.003v-.003l-.27-.354-1.126-.94-.157-.199-.343-.457-.33-.268-.91-.19-.993-.354-.421-.084-.404-.209-.199-.499-.126-.605-.18-.52-.645-.693-.866-.478-.946-.272-2.613-.259-.685-.39-1.06-1.081-.445-.413-.39-.505-.17-.584.223-.642.969-.872.445-.58.103-.778-.326-.592-.584-.262-.667-.19-.56-.385-.572-.967-.319-.3-1.337-.329-1.258-.508-.541-.105-1.506-.006-.578-.274c-.984 2.374-2.017 4.728-2.985 7.109l-.259-.223c-4.54-3.726-9.113-7.418-13.69-11.096l-.443-.357-.411.223-.421.665-.156.374-.06.31.005.385.175 1.147.018.391-.048.446-.054.225-.133.394-.421.73-.916 1.306-.095.165-.073.178-.03.184v.165l.006.168.036.163.036.403-.018.22-.036.22-.193.602-.054.228-.041.23.011.204.03.195.127.55.018.179-.018.183-.054.15-.138.208-.964 1.19-1.18.932-1.167 1.41-.488.806-.066.147-.012.136.03.144.017.145-.006.147-.168.31-.758.987-.193.165-.253.155-.481.168-.307.06-.253.102-.157.144-.18.31-.313.672-.205.32-.175.165-.227.166-.682.306-.234.057-.18.01-.152-.037-.12-.102-.095-.127-.079-.15-.09-.139-.097-.09-.156-.006-.157.106c-1.175 1.725-2.351 3.45-3.522 5.179l-.162.187-.175.115-.21-.06c-1.06-.741-2.124-1.477-3.179-2.225l-.168-.009-.15.135-1.247 1.695-.21.346-.133.307-.042.196-.091.222-.125.259-.525.734-.132.299-.072.24-.313 2.129-.043.144-.138.168-.223.187-.445.271-.313.241-.295.307-.265.424-.132.277-.085.232-.27 1.245-.054.103-.007.067-.072.246-.426 1.298-.175.376-.194.337c-.763 1.064-1.529 2.127-2.293 3.19l-.131.132-.158.094-.223-.015-6.12-2.035-.086-.042-.036-.03.036-.141.12-.293.025-.135.012-.117-.018-.07-.073-.165-1.15-2.09-.09-.128-.096-.088-.066-.047-2.475-.921-.18-.007-.193.157-.168.295-.18.644-.06.367-.02.3.02.2-.013.207-.06.214-.132.277-.548.783-.03.093-.079.541-.03 1.575-.072.21-.132.235-.482.638-.163.332-.3 1.12-.127.198-.301.193-.584.216-.115.133-.102.201-.113.34-.169.314-.296.394-.15.261-.06.35.036.23.133.365.035.164.018.192-.072.238-.139.234-.499.524-.662.445-.289.256-.644.819-1.385 1.276-.102.175-.06.199v.289l.078.384-.048.236-.661 2.106a511.402 511.402 0 0 1-1.668 3.256c-2.043 2.322-4.082 4.648-6.123 6.972l-.041.12-.248.858-.102.262a831.168 831.168 0 0 0-1.915 3.59l-.138.383.024.132.024.088.067.077.373.358.325.217.843.44.132.138.09.202.03.33-.065.227-.11.186-.27.245-.62.394-.488.234-.192.121-.217.175-.307.324-.138.253-.072.236v.174l.03.174.078.15.114.12.338.23.114.165-.006.394-.108.218-.134.156-3.605 2.047-.891.795-.18.12-.157.042-.151.018-.168-.034-.12-.069-.115-.123-.084-.148-.047-.174-.014-.187.007-.33-.024-.13-.049-.147-.102-.142-.29-.069-.215-.018-.698.072-.693.234c-.891.418-1.783.838-2.673 1.26-.887.531-1.772 1.066-2.655 1.606l-.138.06-.235.052-.108-.01-.084-.06-.09-.096-.06-.138-.073-.133-.12-.096-.151-.07-.511-.105-.133-.087-.06-.13-.013-.288-.047-.106-.096-.078-.097-.033-.825-.187-.258-.018-.295.037-.404.15-.228.156-.162.165-.11.175c-.046.133-.09.266-.132.401l-.017.21.017.212.054.174.44.795.018.215-.037.254-.192.385-.168.22-.157.156-1.944 1.153-.21.042-.17-.033-.41-.358-.228-.036-.289.027-.812.412-.259.084-3.064.395-2.396 1.249-.33.087-.079-.045-.073-.06-.065-.102-.11-.272-.083-.131-.114-.121-.236-.205-1.547-.987-.138-.112-.175-.192-.577-.846-.122-.132-.186-.114-.247-.052-.373.027-.247.147-.144.157-.078.16-.211.608-.12.265-.18.288-.356.41-.235.192-.217.115-1.18.13-.444.13-.248.122-.192.13-1.535 1.652-.229.159-.199.085-.698.054-1.8-.169-.361-.102-.735-.535-1.053-.54-.138-.123-.26-.261-.39-.611-.103-.133-.132-.13-.156-.114-.17-.088-.258-.086-.65-.07-.41.01-.373-.046-.114-.023-.343-.211-.259-.263-.108-.14-.079-.148-.27-.699-.085-.156-.108-.141-.277-.236-1.414-.996-.121-.13-.096-.155-.06-.175-.018-.205.005-.216.103-.892.012-.21-.019-.193-.023-.193-.06-.174-.073-.157-.096-.129-.102-.114-1.06-.68-.12-.125-.055-.156-.006-.165.067-.175.096-.129.716-.56.055-.108.041-.157.037-.192v-.208l-.042-.193-.079-.174-.09-.13-.252-.27c-3.806 3.219-7.615 6.436-11.426 9.649l-.717.49a2040.159 2040.159 0 0 0-7.597 3.748l-1.45.992-.541.537-.248.35-.024.234.102.578.049.827-.03.22-.05.21-.083.194-.096.174-.12.139-.308.199-2.619 1.285-.704.55-.288.307-.157.295-.018.602.024.193.018.403-.054.56-.042.18-.06.187-.079.19-.108.159-.12.138-.447.244a2145.5 2145.5 0 0 1-3.64 1.4l-1.26.006-.192.054-.174.114-.596.627-.542 1.189-.204.315-.35.383-.078.123-.012.139.055.343-.013.19-.06.177-.157.129-.258.124-3.034.469-3.028 1.024-1.174.661-.385.326-.223.12-.324.105-2.83.29-2.613.951-.199.018-.571.27L0 107.174c5.993.034 11.987.064 17.98.093 5.754.028 11.507.064 17.26.09 5.165.024 10.33.055 15.495.078l.234-.102.638-.56.265-.072.26-.025c2.43.107 4.863.198 7.295.296l.198.403.108.106.2.06c5.78.08 11.56.114 17.34.171 6.243.061 12.487.113 18.73.179 5.608.059 11.217.11 16.825.165 6.225.06 12.45.116 18.675.178 5.691.057 11.383.108 17.073.166 6.108.061 12.215.13 18.322.179 5.895.048 11.79.12 17.685.175 5.893.055 11.787.113 17.68.172 6.108.06 12.217.114 18.326.176 1.774.017 3.55.027 5.324.046l-.096-.35-.15-.28-.12-.312-.02-.5.929 1.442 1.372.018-.042-.07-.223-2.01.385-3.78.15-.367.326.035.349.226.205.22.174.4.638 2.61.145.27.349.458.108.296v.426l-.108.395-.055.418.15.488.399.012h.422l-.314-1.529-2.733-7.994zm17.18-45.094c-2.411.334-4.827.643-7.241.96l-.205.193c-.156.365-.312.73-.469 1.093l.288.138-.373.391-.481.175-.963.204-.735.446-.699.575v.225l.753-.12.831.199.547.428.09.54-.191.29v.331l.144.35.246.324-.306.07-.687-.124-.223.054-.174.385-.006.428.139.404.27.312-1.745.235-.325-.166-.332-.28-.33-.05-.332.496.59.596.018.506-.398.469-.62.482v.28l.64.009.047.216-1.035 1.144-.037.335.181.569-.68.017-.566.112-.439.304-.313.596.44.566-.338.22-.644.14-.507.35.369.27-.055.313-.295.332-.404.348 1.217.507-.692.385-.609.569-.421.795-.095 1.065.62-.299.277.23-.043.39-.819.422-.35.523-.21.663-.09.632h.223l.066-.237.115-.046.168.03.043-.03-.02.361-.191.47-.344.439-.476.253.145.47-.175.697-.584 1.364.272-.112.168-.035.391.147-.518.473-.445.818-.06.876.62.666v.225l-.138.507.74 1.151.223.754.162.836.385.253.464-.193.366-.53.08-.33.138-1.313.133-.376.289-.376.276-.18.133.161-.12 1.575.204.436.704-.332-.15-.408-.115-.825-.138-.303.289-.666.18-.873.253-3.353.11-.422.155-.408.626-.883.247-.454.055-.27-.055-.314-.042-.602.126-.44.572-.793.126-.29.369-.253 2.28-.381-.229-.402-.366-.158-.434-.08-.404-.14.283-.53.476-.578.464-.235.21.464.114.644.277.427.326.361.27.46.584-.583.602-.767.524-.858.325-.84-.463-.295.132-.988.422-1.125.565-1.096.356-1.343 2.432-4.857 1.12-1.24.222-.593-.307-.744.535-.21.079-.19-.12-.27-.097-.445-.012-.928.048-.583.145-.43.427-.356.476-.193.373-.344.09-.45zm-9.138 21.18l-.884 1.93-.03.183-.019.28h.2l.71-1.198.336-.758.169-.855h-.223l-.259.418z" stroke="#979797"/><g fill="#F60"><path d="M89.869 74.406c0 .686.145 1.351.414 1.956v.022c.083.18 2.404 4.337 3.709 6.656a.99.99 0 0 0 1.72 0 2733.87 2733.87 0 0 0 3.709-6.656v-.022a4.627 4.627 0 0 0 .436-2.319c-.187-2.42-2.259-4.377-4.767-4.5a5.15 5.15 0 0 0-.223-.003c-2.758-.001-4.998 2.174-4.998 4.866zm2.818.02c0-1.17.973-2.12 2.175-2.12 1.201 0 2.175.95 2.175 2.12 0 1.17-.974 2.117-2.175 2.117-1.202 0-2.175-.947-2.175-2.117zM103.31 73.734c0 .686.145 1.351.415 1.957v.02c.082.181 2.403 4.336 3.708 6.656.373.666 1.348.666 1.72 0 .704-1.25 3.688-6.617 3.708-6.656v-.02a4.613 4.613 0 0 0 .436-2.32c-.186-2.42-2.258-4.377-4.766-4.5a5.156 5.156 0 0 0-.223-.004c-2.758 0-4.998 2.175-4.998 4.867zm2.817.02c0-1.17.974-2.12 2.176-2.12 1.202 0 2.176.95 2.176 2.12 0 1.17-.974 2.117-2.176 2.117-1.202 0-2.176-.947-2.176-2.117zM173.874 60.293c0 .686.145 1.351.414 1.957v.02c.084.182 2.405 4.337 3.71 6.657.373.666 1.347.666 1.72 0 .703-1.25 3.688-6.616 3.708-6.656v-.021a4.61 4.61 0 0 0 .436-2.32c-.186-2.421-2.258-4.378-4.766-4.498a5.195 5.195 0 0 0-.224-.005c-2.759 0-4.998 2.174-4.998 4.866zm2.819.02c0-1.17.973-2.119 2.175-2.119s2.175.948 2.175 2.118c0 1.171-.973 2.119-2.175 2.119s-2.175-.948-2.175-2.119zM205.46 80.454a4.8 4.8 0 0 0 .415 1.957v.021c.083.18 2.404 4.337 3.708 6.656.374.667 1.348.667 1.72 0 .705-1.25 3.69-6.617 3.71-6.656v-.021c.33-.706.496-1.494.435-2.32-.186-2.42-2.258-4.376-4.766-4.499a5.15 5.15 0 0 0-.223-.004c-2.759 0-4.999 2.174-4.999 4.866zm2.818.02c0-1.17.975-2.119 2.176-2.119 1.202 0 2.175.949 2.175 2.12 0 1.17-.973 2.117-2.175 2.117-1.201 0-2.176-.948-2.176-2.118zM184.628 12.578c0 .686.144 1.352.413 1.957v.02c.083.182 2.404 4.337 3.71 6.657.373.666 1.347.666 1.72 0 .704-1.25 3.689-6.617 3.708-6.657v-.02a4.614 4.614 0 0 0 .436-2.32c-.186-2.422-2.258-4.378-4.766-4.498a5.196 5.196 0 0 0-.224-.005c-2.759-.001-4.997 2.175-4.997 4.866zm2.817.02c0-1.17.974-2.118 2.176-2.118 1.202 0 2.175.947 2.175 2.118 0 1.17-.973 2.117-2.175 2.117s-2.176-.947-2.176-2.117z"/></g></g></svg>